# xmcd
#
# Track frame offsets:
#	150
#	18380
#	44808
#	68103
#	94647
#	114793
#	134009
#	157316
#	175062
#	197320
#
# Disc length: 2978 seconds
#
# Revision: 1
# Processed by: cddbd v1.5.2PL0 Copyright (c) Steve Scherf et al.
# Submitted via: audiograbber 1.83.01
#
DISCID=850ba00a
DTITLE=Spikedrivers - Front Porch Swing [CD1]
DYEAR=2010
DGENRE=Blues
TTITLE0=You Got To Move
TTITLE1=John Henry
TTITLE2=Midnight Mademoiselle
TTITLE3=One Way Gal
TTITLE4=You Don't Care
TTITLE5=Garbage Man Blues
TTITLE6=That's No Way To Get Along
TTITLE7=Goodbye Mr Blues
TTITLE8=Blues To The River
TTITLE9=Broke Down And Hungry
EXTD=
EXTT0=
EXTT1=
EXTT2=
EXTT3=
EXTT4=
EXTT5=
EXTT6=
EXTT7=
EXTT8=
EXTT9=
PLAYORDER=
